<svg xmlns="http://www.w3.org/2000/svg" viewBox="0 0 512 512" role="img" aria-label="Allocura app icon">
<defs>
<linearGradient id="navy" gradientUnits="userSpaceOnUse" x1="160" y1="0" x2="160" y2="160"><stop stop-color="#123C5C"/><stop offset="1" stop-color="#0C3151"/></linearGradient>
<linearGradient id="flow" gradientUnits="userSpaceOnUse" x1="0" y1="150" x2="320" y2="150"><stop stop-color="#12C2CD"/><stop offset="0.44" stop-color="#13C3CE"/><stop offset="0.55" stop-color="#60AEF0"/><stop offset="1" stop-color="#58A5EC"/></linearGradient>
<path id="silhouette" d="M160 0       C139 0 123 12 115 31       C91 88 66 130 17 186       C-4 210 -5 240 16 253       C36 266 67 255 91 230       C114 205 128 151 147 105       C150 96 154 89 160 89       C166 89 170 96 173 105       C192 151 206 205 229 230       C253 255 284 266 304 253       C325 240 324 210 303 186       C254 130 229 88 205 31       C197 12 181 0 160 0Z"/>
<clipPath id="outline"><use href="#silhouette"/></clipPath>
<linearGradient id="streamShade" gradientUnits="userSpaceOnUse" x1="160" y1="74" x2="160" y2="230"><stop stop-color="#0F3757" stop-opacity="0.29"/><stop offset="0.34" stop-color="#0F3757" stop-opacity="0.15"/><stop offset="0.72" stop-color="#0F3757" stop-opacity="0.035"/><stop offset="1" stop-color="#0F3757" stop-opacity="0"/></linearGradient></defs>
<rect width="512" height="512" rx="112" fill="#F6FBFD"/><g transform="translate(52 91) scale(1.275)"><use href="#silhouette" fill="url(#navy)"/><path clip-path="url(#outline)" fill="url(#flow)" d="M43.016 154.168     C85 132 126 74 160 74     C194 74 235 132 276.984 154.168     L370 180V300H-50V180Z"/><path clip-path="url(#outline)" fill="url(#streamShade)" d="M43.016 154.168     C85 132 126 74 160 74     C194 74 235 132 276.984 154.168     L370 180V300H-50V180Z"/></g>
</svg>
