<svg xmlns="http://www.w3.org/2000/svg" viewBox="0 0 96 96" role="img" aria-label="Owl avatar"><circle cx="48" cy="48" r="48" fill="#dbeafe"/><path d="M20 21 34 31q14-8 28 0l14-10v39c0 18-12 28-28 28S20 78 20 60Z" fill="#9a7dd2" stroke="#62528e" stroke-width="3" stroke-linejoin="round"/><path d="M26 35q22-14 44 0v25c0 12-9 21-22 21s-22-9-22-21Z" fill="#b9a5e4"/><circle cx="36" cy="53" r="12" fill="#fffaf2"/><circle cx="60" cy="53" r="12" fill="#fffaf2"/><circle cx="38" cy="54" r="4" fill="#393750"/><circle cx="58" cy="54" r="4" fill="#393750"/><path d="m43 69 5 6 5-6-5-3Z" fill="#efac55"/><path d="M26 65q-5 8-2 15m46-15q5 8 2 15" fill="none" stroke="#62528e" stroke-width="3" stroke-linecap="round"/></svg>